<svg clip-rule="evenodd" fill-rule="evenodd" height="512" stroke-linejoin="round" stroke-miterlimit="2"
     viewBox="0 0 32 32" width="512" xmlns="http://www.w3.org/2000/svg">
    <g transform="translate(-37 -74)">
        <g id="Layer2">
            <path d="m62.734 94.162c-1.164.831-2.789 1.94-3.386 2.434-.191.158-.218.44-.06.631.157.19.44.217.631.06.767-.635 3.239-2.288 4.227-3.049.249-.192.416-.344.476-.422.285-.37.046-.623-.127-.717-.686-.375-3.043-1.295-4.038-1.688l-.388-.157c-.065-.036-.139-.057-.219-.057-.095 0-.745.618-.136.88.068.029.214.088.413.167.572.226 1.605.629 2.495.996-1.299.054-4.312.142-7.05-.14-1.255-.129-2.453-.326-3.379-.651.11-1.013.131-1.985.127-2.755l-.199-2.215c-.136-.787-.501-2.352-1.233-3.247-.413-.505-.938-.813-1.573-.785-.532.024-.973.366-1.282.868-.369.599-.547 1.418-.54 1.912.015 1.11.301 2.315.799 3.422.501 1.114 1.216 2.129 2.072 2.853.228.193.512.367.84.522-.117.782-.299 1.564-.581 2.267-.456 1.14-1.174 2.069-2.359 2.34-.214.049-.416.077-.607.085.422-1.785.199-3.998.092-5.122-.054-.577-.376-1.832-.984-2.456-.368-.378-.825-.56-1.367-.411-.58.159-.992.641-1.246 1.262-.306.751-.385 1.702-.376 2.275.025 1.584.462 3.412 1.51 4.455.329.328.717.586 1.17.743-.296.616-.748 1.086-1.452 1.247-1.164.267-1.955-.015-2.48-.608-.921-1.04-1.088-2.885-1.101-4.219-.003-.247-.206-.446-.453-.444-.247.003-.446.206-.443.453.015 1.526.272 3.615 1.325 4.805.713.806 1.771 1.252 3.353.89 1.069-.245 1.752-.982 2.16-1.957.339.013.705-.021 1.102-.112 1.485-.339 2.429-1.459 3.001-2.887.283-.705.474-1.484.602-2.268.97.316 2.16.527 3.407.656 2.846.294 5.984.197 7.257.144zm-15.975 3.437.001-.002c.427-1.696.193-3.839.091-4.917-.032-.335-.17-.957-.428-1.463-.187-.366-.41-.722-.786-.618-.32.088-.507.39-.647.732-.258.633-.316 1.435-.309 1.919.022 1.355.348 2.934 1.245 3.826.235.234.511.413.833.523zm4.56-5.545c.079-.867.092-1.691.088-2.355l-.187-2.064c-.103-.594-.338-1.699-.813-2.495-.261-.439-.584-.798-1.052-.777-.312.014-.504.323-.656.645-.195.412-.293.895-.289 1.207.014.992.275 2.067.72 3.057.444.986 1.071 1.887 1.828 2.528.107.09.228.175.361.254z"/>
        </g>
    </g>
</svg>